<svg xmlns="http://www.w3.org/2000/svg" width="1024" height="1024" viewBox="0 0 512 512"><title>Fresh Ink</title><rect width="512" height="512" fill="#d9ebc8"/><ellipse cx="266" cy="426" rx="150" ry="17" fill="#b4cba0" stroke="none" stroke-width="0"/><path d="M125 275L364 257L400 396L143 421Z" fill="#fffdf5" stroke="#202021" stroke-width="6" stroke-linejoin="round" stroke-linecap="round"/><path d="M286 282L351 278L361 313L296 318Z" fill="#dff1d1" stroke="#202021" stroke-width="4" stroke-linejoin="round" stroke-linecap="round"/><path d="M161 336L251 329" fill="none" stroke="#a6b599" stroke-width="7" stroke-linecap="round"/><path d="M169 361L291 351" fill="none" stroke="#a6b599" stroke-width="7" stroke-linecap="round"/><path d="M238 82Q274 65 302 88Q320 108 299 139L280 198L304 221L284 258L186 229L192 192L222 183L229 129Q214 102 238 82Z" fill="#fa6848" stroke="#202021" stroke-width="6" stroke-linejoin="round" stroke-linecap="round"/><path d="M192 195L306 224L334 269L169 232Z" fill="#ff986e" stroke="#202021" stroke-width="6" stroke-linejoin="round" stroke-linecap="round"/><path d="M169 232L334 269L327 295L163 258Z" fill="#202021" stroke="#202021" stroke-width="6" stroke-linejoin="round" stroke-linecap="round"/><path d="M268 341L284 355L317 317" fill="none" stroke="#f26141" stroke-width="11" stroke-linejoin="round" stroke-linecap="round"/><path d="M377 141Q377 164 400 164Q377 164 377 187Q377 164 354 164Q377 164 377 141" fill="#202021" stroke="none" stroke-width="0" stroke-linejoin="round" stroke-linecap="round"/><path d="M347 213L374 202" fill="none" stroke="#202021" stroke-width="4" stroke-linecap="round"/></svg>